<?xml version="1.0" encoding="utf-8"?>
<svg viewBox="0 0 64 64" xmlns="http://www.w3.org/2000/svg" style="background-color: black">
    <path d="M 14.491 51.591 L 13.631 54.141 C 10.824 53.348 8.828 52.088 7.641 50.361 C 6.454 48.634 5.861 46.548 5.861 44.101 L 5.861 39.681 C 5.861 38.068 5.494 36.811 4.761 35.911 C 4.028 35.011 2.898 34.561 1.371 34.561 L 1.371 31.391 C 2.898 31.391 4.028 30.948 4.761 30.061 C 5.494 29.174 5.861 27.921 5.861 26.301 L 5.861 21.851 C 5.861 19.391 6.454 17.301 7.641 15.581 C 8.828 13.861 10.824 12.604 13.631 11.811 L 14.491 14.341 C 12.911 14.841 11.784 15.744 11.111 17.051 C 10.444 18.351 10.111 19.951 10.111 21.851 L 10.111 26.301 C 10.111 27.808 9.808 29.138 9.201 30.291 C 8.601 31.438 7.688 32.338 6.461 32.991 C 7.688 33.651 8.601 34.561 9.201 35.721 C 9.808 36.874 10.111 38.194 10.111 39.681 L 10.111 44.101 C 10.111 46.001 10.444 47.594 11.111 48.881 C 11.784 50.168 12.911 51.071 14.491 51.591 ZM 33.226 46.281 L 29.576 46.281 L 19.046 17.941 L 16.536 17.601 L 16.536 14.861 L 26.466 14.861 L 26.466 17.601 L 23.596 18.051 L 30.636 38.041 L 31.366 40.521 L 31.496 40.521 L 32.276 38.041 L 39.566 18.031 L 36.376 17.601 L 36.376 14.861 L 46.276 14.861 L 46.276 17.601 L 43.756 17.941 L 33.226 46.281 ZM 49.532 54.141 L 48.662 51.591 C 50.216 51.071 51.332 50.168 52.012 48.881 C 52.686 47.594 53.022 46.001 53.022 44.101 L 53.022 39.681 C 53.022 38.141 53.346 36.794 53.992 35.641 C 54.639 34.488 55.639 33.604 56.992 32.991 C 55.639 32.398 54.639 31.524 53.992 30.371 C 53.346 29.224 53.022 27.868 53.022 26.301 L 53.022 21.851 C 53.022 19.951 52.686 18.351 52.012 17.051 C 51.332 15.744 50.216 14.841 48.662 14.341 L 49.532 11.811 C 52.319 12.604 54.306 13.861 55.492 15.581 C 56.679 17.301 57.272 19.391 57.272 21.851 L 57.272 26.301 C 57.272 27.921 57.639 29.174 58.372 30.061 C 59.112 30.948 60.249 31.391 61.782 31.391 L 61.782 34.561 C 60.249 34.561 59.112 35.011 58.372 35.911 C 57.639 36.811 57.272 38.068 57.272 39.681 L 57.272 44.101 C 57.272 46.548 56.679 48.634 55.492 50.361 C 54.306 52.088 52.319 53.348 49.532 54.141 Z"
          transform="matrix(1, 0, 0, 1, 0, 0)" style="fill: rgb(255, 255, 255); white-space: pre;"/>
</svg>
